<svg id="Capa_1" enable-background="new 0 0 512 512" height="512" viewBox="0 0 512 512" width="512" xmlns="http://www.w3.org/2000/svg"><g id="XMLID_2040_"><circle id="XMLID_1170_" cx="210" cy="302" fill="#91def5" r="200"/><path id="XMLID_1252_" d="m310.911 116.754 84.079-106.754 84.079 106.754c33.55 42.598 29.941 103.557-8.401 141.899-41.796 41.796-109.561 41.796-151.357 0-38.342-38.342-41.951-99.301-8.4-141.899z" fill="#dff6fc"/><g id="XMLID_759_"><path id="XMLID_760_" d="m174.798 388.747c1.265.531 2.576.782 3.866.782 3.907 0 7.618-2.304 9.225-6.133l64.758-154.303c2.138-5.092-.259-10.953-5.351-13.09-5.095-2.138-10.954.258-13.091 5.351l-64.758 154.303c-2.137 5.092.259 10.953 5.351 13.09z"/><path id="XMLID_763_" d="m199.375 247.585c0-21.81-16.087-39.553-35.859-39.553s-35.858 17.743-35.858 39.553 16.086 39.553 35.858 39.553 35.859-17.744 35.859-39.553zm-35.859 19.552c-8.744 0-15.858-8.771-15.858-19.553s7.114-19.553 15.858-19.553c8.745 0 15.859 8.771 15.859 19.553s-7.114 19.553-15.859 19.553z"/><path id="XMLID_770_" d="m256.484 400.032c19.772 0 35.858-17.743 35.858-39.553s-16.086-39.553-35.858-39.553-35.859 17.743-35.859 39.553 16.087 39.553 35.859 39.553zm0-59.106c8.744 0 15.858 8.771 15.858 19.553s-7.114 19.553-15.858 19.553c-8.745 0-15.859-8.771-15.859-19.553s7.114-19.553 15.859-19.553z"/><path id="XMLID_773_" d="m486.926 110.567-84.079-106.754c-1.897-2.408-4.792-3.813-7.857-3.813s-5.96 1.405-7.855 3.813l-84.081 106.754c-.598.759-1.184 1.524-1.76 2.293-28.294-13.656-59.669-20.86-91.294-20.86-115.794 0-210 94.206-210 210s94.206 210 210 210c39.357 0 77.729-10.955 110.966-31.681 4.687-2.922 6.116-9.09 3.194-13.776-2.922-4.687-9.09-6.117-13.776-3.194-30.06 18.743-64.772 28.651-100.384 28.651-104.767 0-190-85.233-190-190s85.233-190 190-190c27.901 0 55.58 6.193 80.663 17.946-22.563 44.347-14.795 99.405 21.578 135.777 22.103 22.104 51.49 34.277 82.748 34.277 1.665 0 3.324-.042 4.978-.111.008.704.033 1.409.033 2.111 0 35.875-10.045 70.807-29.048 101.018-2.94 4.675-1.534 10.848 3.141 13.789 1.654 1.041 3.495 1.537 5.314 1.537 3.323 0 6.574-1.656 8.475-4.677 21.012-33.405 32.118-72.019 32.118-111.667 0-1.547-.039-3.102-.073-4.655 21.74-4.695 41.71-15.52 57.812-31.621 41.902-41.901 45.851-108.604 9.187-155.157zm-91.937 169.433c-25.916 0-50.281-10.092-68.606-28.418-34.741-34.74-38.016-90.043-7.616-128.64h-.001l76.225-96.779 76.223 96.779c30.399 38.597 27.125 93.9-7.616 128.641-18.327 18.325-42.692 28.417-68.609 28.417z"/><path id="XMLID_799_" d="m351.34 433.5c-2.64 0-5.22 1.07-7.07 2.93-1.859 1.86-2.93 4.44-2.93 7.07 0 2.64 1.07 5.21 2.93 7.08 1.86 1.86 4.431 2.92 7.07 2.92 2.63 0 5.2-1.06 7.07-2.92 1.859-1.87 2.93-4.44 2.93-7.08 0-2.63-1.07-5.21-2.93-7.07s-4.44-2.93-7.07-2.93z"/></g></g></svg>