<?xml version="1.0" encoding="iso-8859-1"?>
<!-- Generator: Adobe Illustrator 19.0.0, SVG Export Plug-In . SVG Version: 6.00 Build 0)  -->
<svg version="1.1" id="Capa_1" xmlns="http://www.w3.org/2000/svg" xmlns:xlink="http://www.w3.org/1999/xlink" x="0px" y="0px"
	 viewBox="0 0 480 480" style="enable-background:new 0 0 480 480;" xml:space="preserve">
<g>
	<g>
		<g>
			<path d="M329.624,66.336c-1.44-1.596-3.525-2.455-5.672-2.336l-32,0.104c-4.418,0-8,3.582-8,8v253.32
				c-15.725,7.439-27.1,21.762-30.784,38.764c-6.549,30.227,12.645,60.039,42.872,66.588c3.892,0.81,7.857,1.22,11.832,1.224
				c21.614,0.008,41.302-12.423,50.588-31.94c13.288-27.928,1.42-61.34-26.508-74.628V72
				C331.958,69.878,331.121,67.841,329.624,66.336z M339.058,350.88c13.877,17.143,11.229,42.29-5.914,56.168
				c-9.481,7.665-21.923,10.624-33.84,8.048c-13.451-2.983-24.421-12.679-29.032-25.663c-7.394-20.817,3.487-43.687,24.304-51.081
				c3.216-1.117,5.374-4.147,5.376-7.552V80.08l16-0.08v250.8c0.001,3.403,2.155,6.432,5.368,7.552
				C328.277,340.81,334.417,345.146,339.058,350.88z"/>
			<path d="M363.952,288.312v-32.136h-16V292.8c0,2.858,1.525,5.499,4,6.928c13.378,7.724,24.487,18.833,32.21,32.21
				c24.301,42.09,9.88,95.91-32.21,120.21c-42.09,24.301-95.91,9.88-120.21-32.21c-24.301-42.09-9.88-95.91,32.21-120.21
				c2.475-1.429,4-4.07,4-6.928V56c0.026-22.08,17.92-39.974,40-40c22.075,0.04,39.96,17.925,40,40v24h16V56
				c-0.035-30.913-25.087-55.965-56-56c-30.913,0.035-55.965,25.087-56,56v232.312c-29.976,19.115-48.11,52.218-48.082,87.77
				C203.916,433.52,250.515,480.045,307.952,480c35.552,0.028,68.655-18.106,87.77-48.082
				C426.605,383.489,412.381,319.195,363.952,288.312z"/>
			<path d="M155.952,56c0-13.255-10.745-24-24-24s-24,10.745-24,24s10.745,24,24,24S155.952,69.255,155.952,56z M131.952,64
				c-4.418,0-8-3.582-8-8s3.582-8,8-8s8,3.582,8,8S136.371,64,131.952,64z"/>
			<path d="M243.952,88c0-48.601-39.399-88-88-88s-88,39.399-88,88s39.399,88,88,88C204.53,175.943,243.895,136.577,243.952,88z
				 M155.952,160c-39.765,0-72-32.236-72-72c0-39.765,32.235-72,72-72c39.744,0.048,71.952,32.256,72,72
				C227.952,127.764,195.717,160,155.952,160z"/>
			<path d="M191.952,124.8c-7.412,4.267-16.535,4.267-23.947,0c-11.488-6.613-15.439-21.286-8.827-32.773
				c6.613-11.487,21.286-15.439,32.773-8.827c3.828,2.209,8.723,0.896,10.932-2.932s0.896-8.723-2.932-10.932
				c-6.06-3.489-12.928-5.329-19.92-5.336c-22.091-0.022-40.018,17.869-40.04,39.96c-0.022,22.091,17.869,40.018,39.96,40.04
				c7.021,0.008,13.919-1.835,20-5.344c0.031-0.017,0.061-0.035,0.092-0.053c3.812-2.234,5.09-7.136,2.856-10.947
				C200.665,123.844,195.764,122.566,191.952,124.8z"/>
			<rect x="347.952" y="96" width="32" height="16"/>
			<rect x="347.952" y="128" width="32" height="16"/>
			<rect x="347.952" y="160" width="32" height="16"/>
			<rect x="347.952" y="192" width="32" height="16"/>
			<rect x="347.952" y="224" width="32" height="16"/>
		</g>
	</g>
</g>
<g>
</g>
<g>
</g>
<g>
</g>
<g>
</g>
<g>
</g>
<g>
</g>
<g>
</g>
<g>
</g>
<g>
</g>
<g>
</g>
<g>
</g>
<g>
</g>
<g>
</g>
<g>
</g>
<g>
</g>
</svg>
